<svg width="60" height="55" viewBox="0 0 60 55" fill="none" xmlns="http://www.w3.org/2000/svg">
<path d="M25.4268 49.5646C25.7805 48.6599 25.9491 47.6941 25.9228 46.7239C25.9768 44.0348 26.7001 41.4009 28.0283 39.0573C29.3533 36.7176 31.2427 34.7418 33.5267 33.3074C34.3723 32.8567 35.1172 32.2402 35.7162 31.4953C36.3152 30.7503 36.7558 29.8924 37.0115 28.9734C37.2671 28.0544 37.3324 27.0934 37.2035 26.1486C37.0745 25.2038 36.754 24.2948 36.2613 23.4766C35.6031 22.3837 34.6558 21.4877 33.5267 20.8916C32.8794 20.4454 32.2575 19.9649 31.6648 19.4501L30.1793 18.0049C27.4573 15.1619 25.9309 11.3934 25.9119 7.46968C25.94 6.49919 25.7722 5.53294 25.4184 4.62792C25.0646 3.7229 24.532 2.89745 23.8519 2.20026C23.1748 1.50385 22.3635 0.950103 21.4663 0.572074C20.5691 0.194045 19.6045 -0.000517304 18.6299 1.03296e-06C17.656 0.00136568 16.6921 0.196791 15.7955 0.574715C14.8989 0.95264 14.0877 1.50539 13.4098 2.20026C12.7309 2.89867 12.1991 3.7246 11.8453 4.6297C11.4916 5.5348 11.3231 6.50091 11.3498 7.47149C11.3656 8.73137 11.7149 9.96493 12.3625 11.0483C13.0079 12.1298 13.9293 13.0227 15.0335 13.6369C19.5045 16.4477 22.6155 21.8219 22.6155 27.1076C22.6044 30.9973 21.1071 34.7377 18.4263 37.5724L15.0444 40.5566C13.9407 41.169 13.0189 42.0614 12.3716 43.1453C11.7225 44.2274 11.3752 45.463 11.3589 46.7239C11.331 47.6943 11.499 48.6605 11.8528 49.5655C12.2066 50.4704 12.7391 51.2959 13.4189 51.9933C14.0961 52.6895 14.9074 53.2432 15.8046 53.6212C16.7017 53.9992 17.6663 54.1939 18.6408 54.1936C19.6151 54.1924 20.5793 53.9971 21.4762 53.6192C22.3732 53.2413 23.1847 52.6884 23.8628 51.9933C24.5414 51.295 25.073 50.4694 25.4268 49.5646Z" fill="#8DA2FB"/>
<path d="M35.3031 11.489C34.5012 10.2932 34.0739 8.88594 34.0739 7.448C34.0752 5.52183 34.8432 3.67433 36.2104 2.30865C37.3991 1.12043 38.967 0.380264 40.645 0.215129C42.3231 0.0499938 44.0067 0.470186 45.4069 1.40361C46.6064 2.2037 47.5402 3.33898 48.0906 4.66607C48.6411 5.99467 48.7848 7.45508 48.5037 8.86444C48.2227 10.2738 47.5293 11.5695 46.5106 12.5892C45.4949 13.6061 44.1973 14.2992 42.7834 14.5801C41.3695 14.861 39.9034 14.7169 38.5722 14.1662C37.2398 13.615 36.1021 12.6832 35.3031 11.489Z" fill="#8DA2FB"/>
<path d="M37.3122 40.6777C38.5104 39.8792 39.9195 39.4529 41.3596 39.4529V39.4493C42.3168 39.4504 43.2644 39.6393 44.148 40.0051C45.0317 40.3709 45.8339 40.9064 46.5088 41.5809C47.7014 42.773 48.4432 44.3375 48.6089 46.0102C48.7745 47.6829 48.3538 49.3612 47.4179 50.7613C46.6189 51.9571 45.4805 52.8902 44.1469 53.4421C42.8158 53.9928 41.3497 54.1369 39.9357 53.856C38.5218 53.5751 37.2242 52.8819 36.2085 51.865C35.1894 50.8452 34.4959 49.5492 34.2148 48.1395C33.9338 46.7297 34.0777 45.269 34.6285 43.9401C35.179 42.6131 36.1128 41.4778 37.3122 40.6777Z" fill="#8DA2FB"/>
<path d="M58.7727 23.0467C59.5724 24.2422 59.9997 25.647 60 27.0844C59.9988 29.011 59.2308 30.859 57.8636 32.2253C57.1885 32.8995 56.3863 33.4349 55.5027 33.8007C54.6191 34.1664 53.6716 34.3555 52.7144 34.3569C51.2728 34.3569 49.8638 33.9306 48.667 33.1321C47.4676 32.332 46.5337 31.1968 45.9833 29.8697C45.4325 28.5408 45.2886 27.0801 45.5696 25.6703C45.8507 24.2606 46.5442 22.9646 47.5633 21.9448C48.5791 20.9275 49.8771 20.2342 51.2914 19.9533C52.7057 19.6724 54.1722 19.8167 55.5035 20.3677C56.8362 20.9195 57.974 21.8518 58.7727 23.0467Z" fill="#8DA2FB"/>
<path d="M3.23692 21.0397C4.43513 20.2413 5.84243 19.815 7.28429 19.815C8.2413 19.817 9.18852 20.0064 10.0718 20.3725C10.955 20.7386 11.7569 21.2741 12.4317 21.9484C13.6237 23.14 14.3652 24.7039 14.5309 26.3759C14.6965 28.0479 14.2761 29.7255 13.3408 31.1252C12.542 32.3199 11.4042 33.2523 10.0716 33.8041C8.74003 34.3521 7.27459 34.4948 5.86125 34.214C4.4479 33.9333 3.15036 33.2417 2.13325 32.2271C1.11451 31.2074 0.421197 29.9117 0.140141 28.5024C-0.140916 27.093 0.00277412 25.6326 0.553217 24.304C1.1034 22.9763 2.03729 21.8404 3.23692 21.0397Z" fill="#8DA2FB"/>
</svg>
